<?xml version="1.0" encoding="utf-8"?><!-- Uploaded to: SVG Repo, www.svgrepo.com, Generator: SVG Repo Mixer Tools -->
<svg fill="#000000" width="800px" height="800px" viewBox="0 0 24 24" id="create-note-alt" data-name="Flat Color" xmlns="http://www.w3.org/2000/svg" class="icon flat-color"><path id="primary" d="M21,9.54A8.18,8.18,0,0,1,14.83,12l-1.42,1.41a2,2,0,0,1-2.82,0,2,2,0,0,1,0-2.82L12,9.17c0-1.59.24-4.64,2.05-6.71.15-.16.3-.32.45-.46H4A2,2,0,0,0,2,4V20a2,2,0,0,0,2,2H20a2,2,0,0,0,2-2V7.91A7.3,7.3,0,0,1,21,9.54Z" style="fill: rgb(0, 0, 0);"></path><path id="secondary" d="M22,1.94a1,1,0,0,0-.87-.9,9.45,9.45,0,0,0-2.83.17,1,1,0,0,0-.76.72l-.18.72-.83-.33a1,1,0,0,0-1,.13,4.87,4.87,0,0,0-.7.67C13,5.15,13,8.36,13,9.58l-1.72,1.71a1,1,0,0,0,0,1.42,1,1,0,0,0,1.42,0L14.42,11c1.16,0,4-.07,5.77-2.11C22.37,6.39,22,2.12,22,1.94Z" style="fill: rgb(44, 169, 188);"></path></svg>